HIERARCHY
ROOT Hips
{
    OFFSET   0.000000   0.000000   0.000000
    CHANNELS 6 Xposition Yposition Zposition Zrotation Xrotation Yrotation
    JOINT Chest
    {
        OFFSET   0.000000   8.007240   0.000000
        CHANNELS 3 Zrotation Xrotation Yrotation
        JOINT Chest2
        {
            OFFSET   0.000000  22.077100   0.000000
            CHANNELS 3 Zrotation Xrotation Yrotation
            JOINT Neck
            {
                OFFSET   0.000000  23.254800   0.000000
                CHANNELS 3 Zrotation Xrotation Yrotation
                JOINT Head
                {
                    OFFSET   0.000000  14.370000   1.956600
                    CHANNELS 3 Zrotation Xrotation Yrotation
                    End Site
                    {
                        OFFSET   0.000000  19.566000   0.000000
                    }
                }
            }
            JOINT LeftCollar
            {
                OFFSET   3.911900  19.017000  -0.467064
                CHANNELS 3 Zrotation Xrotation Yrotation
                JOINT LeftShoulder
                {
                    OFFSET  10.383700   0.000000   0.000000
                    CHANNELS 3 Zrotation Xrotation Yrotation
                    JOINT LeftElbow
                    {
                        OFFSET  26.662100   0.001476   0.000517
                        CHANNELS 3 Zrotation Xrotation Yrotation
                        JOINT LeftWrist
                        {
                            OFFSET  28.869000  -0.000025  -0.000106
                            CHANNELS 3 Zrotation Xrotation Yrotation
                            JOINT LeftFinger0
                            {
                                OFFSET   2.044660  -2.323460   3.252850
                                CHANNELS 3 Zrotation Xrotation Yrotation
                                JOINT LeftFinger01
                                {
                                    OFFSET   3.088130   0.000000   0.000000
                                    CHANNELS 3 Zrotation Xrotation Yrotation
                                    JOINT LeftFinger02
                                    {
                                        OFFSET   2.639460   0.000000   0.000000
                                        CHANNELS 3 Zrotation Xrotation Yrotation
                                        End Site
                                        {
                                            OFFSET   2.582190   0.000000   0.000000
                                        }
                                    }
                                }
                            }
                            JOINT LeftFinger1
                            {
                                OFFSET   8.364480   0.000000   3.252850
                                CHANNELS 3 Zrotation Xrotation Yrotation
                                JOINT LeftFinger11
                                {
                                    OFFSET   4.646930   0.000000   0.000000
                                    CHANNELS 3 Zrotation Xrotation Yrotation
                                    JOINT LeftFinger12
                                    {
                                        OFFSET   2.323460   0.000000   0.000000
                                        CHANNELS 3 Zrotation Xrotation Yrotation
                                        End Site
                                        {
                                            OFFSET   2.273050   0.000000   0.000000
                                        }
                                    }
                                }
                            }
                            JOINT LeftFinger2
                            {
                                OFFSET   8.364490   0.000015   1.078090
                                CHANNELS 3 Zrotation Xrotation Yrotation
                                JOINT LeftFinger21
                                {
                                    OFFSET   5.111620   0.000000   0.000000
                                    CHANNELS 3 Zrotation Xrotation Yrotation
                                    JOINT LeftFinger22
                                    {
                                        OFFSET   2.788160   0.000016   0.000000
                                        CHANNELS 3 Zrotation Xrotation Yrotation
                                        End Site
                                        {
                                            OFFSET   2.727660   0.000000   0.000000
                                        }
                                    }
                                }
                            }
                            JOINT LeftFinger3
                            {
                                OFFSET   7.899780   0.000017  -1.078090
                                CHANNELS 3 Zrotation Xrotation Yrotation
                                JOINT LeftFinger31
                                {
                                    OFFSET   4.646930   0.000000   0.000000
                                    CHANNELS 3 Zrotation Xrotation Yrotation
                                    JOINT LeftFinger32
                                    {
                                        OFFSET   2.323470   0.000000   0.000000
                                        CHANNELS 3 Zrotation Xrotation Yrotation
                                        End Site
                                        {
                                            OFFSET   2.273050   0.000000   0.000000
                                        }
                                    }
                                }
                            }
                            JOINT LeftFinger4
                            {
                                OFFSET   7.435090   0.000000  -3.252850
                                CHANNELS 3 Zrotation Xrotation Yrotation
                                JOINT LeftFinger41
                                {
                                    OFFSET   3.717550   0.000000   0.000000
                                    CHANNELS 3 Zrotation Xrotation Yrotation
                                    JOINT LeftFinger42
                                    {
                                        OFFSET   1.858770   0.000000   0.000000
                                        CHANNELS 3 Zrotation Xrotation Yrotation
                                        End Site
                                        {
                                            OFFSET   1.818440   0.000000   0.000000
                                        }
                                    }
                                }
                            }
                        }
                    }
                }
            }
            JOINT RightCollar
            {
                OFFSET  -3.911900  19.017000  -0.467063
                CHANNELS 3 Zrotation Xrotation Yrotation
                JOINT RightShoulder
                {
                    OFFSET -10.383700   0.000019   0.000000
                    CHANNELS 3 Zrotation Xrotation Yrotation
                    JOINT RightElbow
                    {
                        OFFSET -26.662100   0.001175   0.000102
                        CHANNELS 3 Zrotation Xrotation Yrotation
                        JOINT RightWrist
                        {
                            OFFSET -28.869000   0.000016  -0.000079
                            CHANNELS 3 Zrotation Xrotation Yrotation
                            JOINT RightFinger0
                            {
                                OFFSET  -2.044660  -2.323490   3.252850
                                CHANNELS 3 Zrotation Xrotation Yrotation
                                JOINT RightFinger01
                                {
                                    OFFSET  -3.088140   0.000000   0.000000
                                    CHANNELS 3 Zrotation Xrotation Yrotation
                                    JOINT RightFinger02
                                    {
                                        OFFSET  -2.639460   0.000000   0.000000
                                        CHANNELS 3 Zrotation Xrotation Yrotation
                                        End Site
                                        {
                                            OFFSET  -2.582190   0.000000   0.000000
                                        }
                                    }
                                }
                            }
                            JOINT RightFinger1
                            {
                                OFFSET  -8.364480   0.000000   3.252850
                                CHANNELS 3 Zrotation Xrotation Yrotation
                                JOINT RightFinger11
                                {
                                    OFFSET  -4.646930   0.000000   0.000000
                                    CHANNELS 3 Zrotation Xrotation Yrotation
                                    JOINT RightFinger12
                                    {
                                        OFFSET  -2.323470   0.000000   0.000000
                                        CHANNELS 3 Zrotation Xrotation Yrotation
                                        End Site
                                        {
                                            OFFSET  -2.273050   0.000000   0.000000
                                        }
                                    }
                                }
                            }
                            JOINT RightFinger2
                            {
                                OFFSET  -8.364480   0.000000   1.078090
                                CHANNELS 3 Zrotation Xrotation Yrotation
                                JOINT RightFinger21
                                {
                                    OFFSET  -5.111620   0.000000   0.000000
                                    CHANNELS 3 Zrotation Xrotation Yrotation
                                    JOINT RightFinger22
                                    {
                                        OFFSET  -2.788160   0.000000   0.000000
                                        CHANNELS 3 Zrotation Xrotation Yrotation
                                        End Site
                                        {
                                            OFFSET  -2.727660   0.000000   0.000000
                                        }
                                    }
                                }
                            }
                            JOINT RightFinger3
                            {
                                OFFSET  -7.899780   0.000000  -1.078090
                                CHANNELS 3 Zrotation Xrotation Yrotation
                                JOINT RightFinger31
                                {
                                    OFFSET  -4.646930   0.000000   0.000000
                                    CHANNELS 3 Zrotation Xrotation Yrotation
                                    JOINT RightFinger32
                                    {
                                        OFFSET  -2.323470   0.000000   0.000000
                                        CHANNELS 3 Zrotation Xrotation Yrotation
                                        End Site
                                        {
                                            OFFSET  -2.273050   0.000000   0.000000
                                        }
                                    }
                                }
                            }
                            JOINT RightFinger4
                            {
                                OFFSET  -7.435090   0.000000  -3.252850
                                CHANNELS 3 Zrotation Xrotation Yrotation
                                JOINT RightFinger41
                                {
                                    OFFSET  -3.717550   0.000000   0.000000
                                    CHANNELS 3 Zrotation Xrotation Yrotation
                                    JOINT RightFinger42
                                    {
                                        OFFSET  -1.858770   0.000000   0.000000
                                        CHANNELS 3 Zrotation Xrotation Yrotation
                                        End Site
                                        {
                                            OFFSET  -1.818440   0.000000   0.000000
                                        }
                                    }
                                }
                            }
                        }
                    }
                }
            }
        }
    }
    JOINT LeftHip
    {
        OFFSET   9.783040   0.000000   0.000000
        CHANNELS 3 Zrotation Xrotation Yrotation
        JOINT LeftKnee
        {
            OFFSET   0.000032 -41.789100  -0.002222
            CHANNELS 3 Zrotation Xrotation Yrotation
            JOINT LeftAnkle
            {
                OFFSET   0.000087 -41.133200  -0.000135
                CHANNELS 3 Zrotation Xrotation Yrotation
                JOINT LeftToe
                {
                    OFFSET   0.000000  -6.358960  14.674500
                    CHANNELS 3 Zrotation Xrotation Yrotation
                    End Site
                    {
                        OFFSET   0.000000   0.000000   3.913200
                    }
                }
            }
        }
    }
    JOINT RightHip
    {
        OFFSET  -9.783040   0.000000   0.000000
        CHANNELS 3 Zrotation Xrotation Yrotation
        JOINT RightKnee
        {
            OFFSET   0.000047 -41.789100  -0.000896
            CHANNELS 3 Zrotation Xrotation Yrotation
            JOINT RightAnkle
            {
                OFFSET  -0.000117 -41.133300  -0.000248
                CHANNELS 3 Zrotation Xrotation Yrotation
                JOINT RightToe
                {
                    OFFSET   0.000000  -6.358970  14.674500
                    CHANNELS 3 Zrotation Xrotation Yrotation
                    End Site
                    {
                        OFFSET   0.000000   0.000000   3.913200
                    }
                }
            }
        }
    }
}
MOTION
Frames: 4
Frame Time:   0.016667
 -1.029550  89.351600   2.042740  -2.332490 -18.966700   0.339712   1.249860  12.642300   1.267200   2.291770  25.307400   2.332000   3.834520  -0.765815   0.058169   6.302590  -1.531960 -18.636700  -3.360130  -5.272360  -3.187880 -67.914200  18.464500  -6.320620  -3.507710  -6.402120 -16.748700  11.005400  -4.540950   0.270469  37.719000  29.875500 -56.071600 -32.693000   0.002356   0.005267 -11.346500   0.001274  -0.004852 -28.732800   5.349180  -9.650930 -23.878400   0.005355   0.001912 -16.714900   0.001455  -0.004707 -28.327100   0.270825  -0.502470 -34.456900  -0.001489  -0.000107 -22.948300   0.001320  -0.002314 -27.853100   0.266680  -0.504703 -31.098300  -0.000566   0.000724 -20.711500  -0.000529  -0.002432 -28.868500  -0.288679   0.523360 -43.304700  -0.001039   0.000577 -28.840900  -0.000936  -0.000453   9.569670  -8.786920   3.109310  45.060500 -19.494100  46.648700 -24.846300 -46.951100  89.753100  48.270900 -48.259000  53.654600 -37.584900  37.419200  62.371700  39.530300   0.000314  -0.001587  16.041600  -0.000539   0.000225  88.996800   5.001560   0.080574  87.446600  -0.004149   0.005340  65.585000   0.000936   0.003081  89.000000   0.005936  -0.000195  99.661100  -0.001573  -0.004157  74.745800   0.008350   0.001495  88.996200  -4.996420  -0.087490  98.065300  -0.001661  -0.003695  73.549000   0.005714   0.001516  88.984600  -9.995720  -0.176315 110.000000  -0.007640  -0.007037  80.000000  -0.006976   0.009687   2.161610  21.257700  -0.280269   0.908276   1.711030   9.177480  -0.630736  -3.995820  -2.300540   0.000000   0.000000  -0.000000   5.170790  20.791900  -5.354330   0.508296   2.936640 -15.859500  -1.051220  -5.781070   5.940360  -0.000000   0.000000   0.000000
 -1.029390  89.357700   2.090630  -2.273990 -18.934300   0.478155   1.195000  12.605900   1.316710   2.166210  25.234400   2.448580   3.822220  -0.804097   0.058581   6.285300  -1.608770 -18.653500  -3.373020  -5.281870  -3.202590 -67.980800  18.402600  -6.270120  -3.500740  -6.327650 -16.707300  11.013200  -4.334360   0.247972  37.728600  29.887000 -56.096300 -32.681000   0.002284   0.005202 -11.340500   0.001240  -0.004711 -28.700200   5.340630  -9.645450 -23.851200   0.005560   0.001879 -16.695900   0.001564  -0.004713 -28.322700   0.261041  -0.484452 -34.425000  -0.001488  -0.000108 -22.927100   0.001267  -0.002262 -27.843400   0.256916  -0.486657 -31.041300  -0.000566   0.000722 -20.673500  -0.000530  -0.002385 -28.826000  -0.294054   0.533806 -43.241000  -0.001038   0.000577 -28.798500  -0.000936  -0.000410   9.522770  -8.798870   3.071460  44.930300 -19.374500  46.527500 -25.167900 -47.035700  89.574100  48.217100 -48.315900  53.654200 -37.353700  37.207600  62.118400  39.658000   0.000246  -0.001619  16.161100  -0.000576   0.000251  88.996800   5.001680   0.080403  87.783000  -0.004279   0.005442  65.837300   0.000746   0.003108  89.000000   0.005781  -0.000168  99.766900  -0.001652  -0.004312  74.825100   0.008548   0.001514  88.996200  -4.996360  -0.087488  98.130100  -0.001713  -0.003843  73.597700   0.005690   0.001516  88.984600  -9.995650  -0.176314 110.000000  -0.007735  -0.007023  80.000000  -0.007008   0.009644   2.145430  21.248000  -0.336981   0.899508   1.703320   9.108160  -0.617955  -4.017080  -2.295400   0.000000   0.000000   0.000000   5.146290  20.791800  -5.348370   0.529325   2.942930 -15.910500  -1.055760  -5.835890   5.839760  -0.000000   0.000000  -0.000000
 -1.028300  89.363700   2.137630  -2.215210 -18.895300   0.620557   1.138900  12.569600   1.362150   2.039180  25.161400   2.556870   3.809140  -0.852376   0.059388   6.261640  -1.705650 -18.656700  -3.390530  -5.300740  -3.233250 -68.038000  18.329200  -6.215480  -3.493330  -6.237710 -16.657200  11.031400  -4.117230   0.225176  37.731100  29.887300 -56.102000 -32.677000   0.002213   0.005136 -11.338500   0.001207  -0.004567 -28.691800   5.324850  -9.623970 -23.842200   0.005764   0.001845 -16.689500   0.001674  -0.004714 -28.318400   0.246389  -0.457252 -34.394600  -0.001488  -0.000110 -22.906800   0.001214  -0.002207 -27.839700   0.242550  -0.459310 -31.018500  -0.000564   0.000719 -20.658300  -0.000530  -0.002336 -28.809100  -0.305976   0.556163 -43.215900  -0.001036   0.000576 -28.781700  -0.000936  -0.000366   9.463640  -8.826080   3.025980  44.834500 -19.223200  46.389400 -25.555400 -47.076800  89.379400  48.213400 -48.442000  53.719300 -37.259000  37.059400  61.946900  39.731300   0.000171  -0.001643  16.230000  -0.000605   0.000278  88.996800   5.001790   0.080238  88.127700  -0.004393   0.005530  66.095800   0.000571   0.003120  89.000000   0.005626  -0.000142  99.844200  -0.001714  -0.004463  74.883100   0.008748   0.001521  88.996200  -4.996310  -0.087487  98.198600  -0.001746  -0.003987  73.649000   0.005668   0.001516  88.984600  -9.995580  -0.176313 110.000000  -0.007828  -0.007007  80.000000  -0.007036   0.009599   2.135670  21.239200  -0.385998   0.881402   1.684880   9.021550  -0.607359  -4.032210  -2.290250  -0.000000   0.000000   0.000000   5.119320  20.790300  -5.342350   0.555029   2.949240 -15.959600  -1.061150  -5.891630   5.732040  -0.000000   0.000000   0.000000
 -1.025060  89.369900   2.181880  -2.147490 -18.840200   0.784021   1.083000  12.530200   1.399280   1.914750  25.082000   2.647710   3.789660  -0.906091   0.061075   6.225250  -1.813330 -18.655000  -3.415610  -5.337880  -3.275560 -68.094200  18.235100  -6.155980  -3.481750  -6.127620 -16.584800  11.056500  -3.922130   0.211224  37.711100  29.859500 -56.074800 -32.691100   0.002130   0.005086 -11.345500   0.001173  -0.004425 -28.746100   5.307200  -9.565500 -23.882800   0.005970   0.001811 -16.718000   0.001784  -0.004714 -28.315600   0.227327  -0.421881 -34.366900  -0.001487  -0.000108 -22.888300   0.001161  -0.002147 -27.848800   0.223882  -0.423733 -31.070700  -0.000563   0.000720 -20.693100  -0.000531  -0.002283 -28.838600  -0.326792   0.593365 -43.260600  -0.001037   0.000576 -28.811500  -0.000936  -0.000322   9.399840  -8.871210   2.974930  44.809900 -19.072000  46.235800 -25.980100 -46.941300  89.267000  48.183300 -48.675500  53.871700 -37.426600  37.199600  61.961300  39.679100   0.000081  -0.001647  16.195800  -0.000607   0.000300  88.996800   5.001900   0.080078  88.396100  -0.004487   0.005602  66.297200   0.000415   0.003118  89.000000   0.005472  -0.000115  99.835900  -0.001762  -0.004614  74.876900   0.008954   0.001517  88.996200  -4.996260  -0.087485  98.202900  -0.001760  -0.004127  73.652100   0.005650   0.001500  88.984600  -9.995520  -0.176312 110.000000  -0.007917  -0.006991  80.000000  -0.007063   0.009548   2.127220  21.213300  -0.423411   0.861107   1.657700   8.913860  -0.597874  -4.038220  -2.292990   0.000000   0.000000   0.000000   5.079410  20.775100  -5.358280   0.595673   2.945680 -16.013000  -1.066940  -5.946560   5.631900  -0.000000   0.000000  -0.000000
